# Blender 4.1.1
# www.blender.org
mtllib Cans Splitted 3.mtl
o Can_03_GEO
v 0.073256 0.052308 -0.000000
v -0.025122 0.042427 -0.030861
v 0.037368 0.068465 -0.021822
v -0.026538 0.062592 -0.021822
v 0.031012 0.074892 -0.000000
v -0.028202 0.071476 -0.000000
v 0.054123 0.060281 0.020728
v -0.026538 0.062592 0.021822
v 0.047121 0.068033 0.014657
v -0.025122 0.042427 0.030861
v 0.071715 0.045766 0.021822
v -0.042476 0.021505 0.021822
v 0.054123 0.060281 -0.020728
v -0.045456 0.012971 -0.000000
v 0.071715 0.045766 -0.021822
v -0.042476 0.021505 -0.021822
v 0.051819 0.046323 -0.030861
v 0.067652 0.054643 -0.014657
v 0.067652 0.054643 0.014657
v 0.037368 0.068465 0.021822
v 0.051819 0.046323 0.030861
v 0.042852 0.072350 -0.000000
v 0.080059 0.042289 -0.000000
v 0.047121 0.068033 -0.014657
v 0.048220 0.069120 -0.014657
v 0.043951 0.073437 -0.000000
v 0.048220 0.069120 0.014657
v 0.054718 0.061709 0.020728
v 0.054718 0.061709 -0.020728
v 0.068247 0.056071 0.014657
v 0.073851 0.053735 -0.000000
v 0.068247 0.056071 -0.014657
v -0.049366 0.047026 -0.024367
v -0.043685 0.063292 -0.017230
v -0.041332 0.070030 -0.000000
v -0.043685 0.063292 0.017230
v -0.049366 0.047026 0.024367
v -0.059325 0.034374 0.017230
v -0.064290 0.029247 -0.000000
v -0.059325 0.034374 -0.017230
v -0.051172 0.047656 -0.025467
v -0.045235 0.064657 -0.018008
v -0.042775 0.071699 -0.000000
v -0.045235 0.064657 0.018008
v -0.051172 0.047656 0.025467
v -0.061240 0.035146 0.018008
v -0.066429 0.029787 -0.000000
v -0.061240 0.035146 -0.018008
v -0.052669 0.048179 -0.022810
v -0.047351 0.063406 -0.016129
v -0.045148 0.069714 -0.000000
v -0.047351 0.063406 0.016129
v -0.052669 0.048179 0.022810
v -0.061071 0.037599 0.016129
v -0.065719 0.032800 -0.000000
v -0.061071 0.037599 -0.016129
v -0.048056 0.046568 -0.022012
v -0.042924 0.061263 -0.015565
v -0.040798 0.067350 -0.000000
v -0.042924 0.061263 0.015565
v -0.048056 0.046568 0.022013
v -0.057169 0.034604 0.015565
v -0.061655 0.029973 -0.000000
v -0.057169 0.034604 -0.015565
v -0.049958 0.047232 -0.019596
v -0.045390 0.060314 -0.013856
v -0.043497 0.065733 -0.000000
v -0.045390 0.060314 0.013857
v -0.049958 0.047232 0.019596
v -0.057428 0.037234 0.013857
v -0.061421 0.033111 -0.000000
v -0.057428 0.037234 -0.013856
v -0.007379 0.045333 -0.021822
v -0.007664 0.054367 -0.000000
v -0.016406 0.009053 0.021822
v -0.016406 0.009053 -0.021822
v -0.006933 0.031185 -0.030861
v -0.007379 0.045333 0.021822
v -0.006933 0.031185 0.030861
v -0.016121 0.000019 -0.000000
v 0.010424 0.041914 -0.021822
v 0.005055 0.048392 -0.000000
v 0.029217 0.006461 0.021822
v 0.029217 0.006461 -0.021822
v 0.010424 0.041914 0.021822
v 0.023146 0.033939 0.030861
v 0.034587 -0.000017 0.000000
v 0.023146 0.033939 -0.030861
vn 0.0211 0.0456 -0.9987
vn 0.1361 0.1343 -0.9815
vn 0.5701 0.6761 -0.4668
vn 0.3392 0.7152 -0.6111
vn 0.6545 0.7560 -0.0000
vn 0.5097 0.8604 -0.0000
vn 0.5701 0.6761 0.4668
vn 0.3392 0.7152 0.6111
vn 0.1361 0.1343 0.9815
vn 0.0211 0.0456 0.9987
vn -0.3088 -0.6480 0.6963
vn -0.1765 -0.7004 0.6915
vn -0.4168 -0.9090 -0.0000
vn -0.2134 -0.9770 -0.0000
vn -0.0848 0.9964 -0.0000
vn -0.1516 0.6722 -0.7247
vn -0.1424 0.7198 -0.6795
vn -0.3088 -0.6480 -0.6963
vn -0.1765 -0.7004 -0.6915
vn 0.2904 0.8162 -0.4995
vn 0.2099 0.9777 -0.0000
vn 0.2858 0.8277 -0.4830
vn 0.6288 0.5869 0.5101
vn 0.8273 0.5617 -0.0000
vn 0.6472 0.5863 0.4873
vn 0.6288 0.5869 -0.5101
vn 0.6472 0.5863 -0.4873
vn 0.3950 0.5830 0.7100
vn 0.3767 0.5923 0.7122
vn 0.2904 0.8162 0.4995
vn 0.2858 0.8277 0.4830
vn 0.3950 0.5830 -0.7100
vn 0.3767 0.5923 -0.7122
vn 0.0143 0.0481 0.9987
vn 0.6527 -0.2720 0.7071
vn -0.0944 0.1088 0.9896
vn 0.9230 -0.3847 -0.0000
vn 0.6527 -0.2720 -0.7071
vn -0.5704 0.4983 0.6529
vn -0.5737 0.5038 0.6458
vn -0.7032 0.7110 -0.0000
vn 0.0143 0.0481 -0.9987
vn -0.0944 0.1088 -0.9896
vn -0.5704 0.4983 -0.6529
vn -0.5737 0.5038 -0.6458
vn 0.5481 0.8364 -0.0000
vn 0.4173 -0.2052 -0.8853
vn -0.1899 0.0598 -0.9800
vn 0.0209 0.7235 -0.6900
vn 0.6727 0.4144 -0.6130
vn -0.5068 -0.4634 0.7269
vn -0.2618 0.1542 0.9527
vn -0.2804 0.0747 0.9570
vn -0.5319 -0.5086 0.6770
vn -0.2618 0.1542 -0.9527
vn -0.5068 -0.4634 -0.7269
vn -0.5319 -0.5086 -0.6770
vn -0.2804 0.0747 -0.9570
vn -0.1516 0.6722 0.7247
vn -0.1424 0.7198 0.6795
vn -0.6627 -0.7489 -0.0000
vn 0.6727 0.4144 0.6130
vn 0.0209 0.7235 0.6900
vn -0.1899 0.0598 0.9800
vn 0.4173 -0.2052 0.8853
vn -0.2449 -0.9696 -0.0000
vn -0.8360 -0.5487 -0.0000
vn -0.6182 -0.3923 -0.6811
vn -0.0365 -0.8058 -0.5911
vn -0.6182 -0.3923 0.6811
vn -0.0365 -0.8058 0.5911
vn 0.7564 0.6541 -0.0000
vn 0.1151 0.9934 -0.0000
vn -0.9734 0.2291 -0.0000
vn -0.8918 0.2946 -0.3433
vn -0.0753 0.1097 -0.9911
vn -0.1112 0.0354 -0.9932
vn 0.3450 0.6535 -0.6737
vn 0.3297 0.6423 -0.6919
vn -0.7700 0.4129 0.4863
vn -0.8918 0.2946 0.3433
vn -0.6417 0.7669 -0.0000
vn -0.6912 0.6252 0.3623
vn -0.7700 0.4129 -0.4863
vn -0.6912 0.6252 -0.3623
vn -0.4775 -0.8787 -0.0000
vn -0.3821 -0.6058 -0.6979
vn -0.3821 -0.6057 -0.6979
vn 0.3296 0.6423 0.6920
vn 0.3449 0.6536 0.6737
vn -0.1113 0.0355 0.9932
vn -0.0754 0.1098 0.9911
vn 0.5707 0.8211 -0.0000
vn 0.5710 0.8209 -0.0000
vn -0.3822 -0.6057 0.6979
vn -0.8872 0.1605 -0.4325
vn -0.9972 0.0743 -0.0000
vn -0.8835 0.1637 -0.4388
vn -0.8816 0.4721 -0.0000
vn -0.8873 0.1604 0.4325
vn -0.6905 0.3809 0.6149
vn -0.7013 0.3633 0.6133
vn -0.8835 0.1637 0.4389
vn -0.5758 0.6808 0.4528
vn -0.5139 0.8578 -0.0000
vn -0.5758 0.6807 0.4529
vn -0.5758 0.6807 -0.4528
vn -0.6905 0.3809 -0.6149
vn -0.7013 0.3633 -0.6133
vn 0.2423 -0.7110 -0.6602
vn -0.0065 0.0054 -1.0000
vn 0.3786 -0.9256 -0.0000
vn 0.2423 -0.7110 0.6602
vn -0.0065 0.0054 1.0000
vn -0.1587 0.7078 0.6883
vn -0.1835 0.9830 -0.0000
vn -0.1587 0.7078 -0.6883
vn 0.0861 -0.1138 -0.9898
vn -0.4967 0.5465 -0.6742
vn -0.7081 0.7061 -0.0000
vn -0.4967 0.5465 0.6742
vn 0.0861 -0.1138 0.9898
vn 0.5431 -0.6123 0.5746
vn 0.6801 -0.7331 -0.0000
vn 0.5431 -0.6123 -0.5746
vt 0.103630 0.497812
vt 0.087871 0.534841
vt 0.049606 0.544826
vt 0.070605 0.499784
vt 0.007117 0.541194
vt 0.025223 0.496458
vt 0.263582 0.379457
vt 0.245476 0.334722
vt 0.287966 0.331089
vt 0.308964 0.376131
vt 0.326231 0.341074
vt 0.341989 0.378104
vt 0.372335 0.312361
vt 0.387569 0.363032
vt 0.416459 0.302010
vt 0.431284 0.361260
vt 0.376083 0.893605
vt 0.347827 0.860271
vt 0.378401 0.848212
vt 0.395183 0.878359
vt 0.192924 0.514655
vt 0.178100 0.573906
vt 0.133976 0.563555
vt 0.149209 0.512884
vt 0.031298 0.768096
vt 0.069651 0.747154
vt 0.073526 0.769220
vt 0.047766 0.783286
vt 0.685482 0.184949
vt 0.723716 0.163790
vt 0.727715 0.185834
vt 0.702035 0.200045
vt 0.069526 0.865456
vt 0.031292 0.844297
vt 0.047846 0.829201
vt 0.073526 0.843412
vt 0.659871 0.216248
vt 0.690243 0.226922
vt 0.685487 0.261150
vt 0.701955 0.245960
vt 0.005681 0.812998
vt 0.036054 0.802324
vt 0.723841 0.282092
vt 0.727715 0.260026
vt 0.219190 0.933804
vt 0.224036 0.904856
vt 0.226858 0.905329
vt 0.222012 0.934276
vt 0.983508 0.114351
vt 0.978662 0.085403
vt 0.981484 0.084931
vt 0.986329 0.113878
vt 0.223902 0.955654
vt 0.226721 0.955168
vt 0.228883 0.984579
vt 0.231703 0.984093
vt 0.228881 0.875909
vt 0.231703 0.876381
vt 0.973817 0.056455
vt 0.976638 0.055983
vt 0.978528 0.034605
vt 0.983510 0.005681
vt 0.986329 0.006167
vt 0.981348 0.035091
vt 0.800512 0.185188
vt 0.800512 0.214539
vt 0.780062 0.235592
vt 0.750743 0.236945
vt 0.739078 0.218984
vt 0.739127 0.189634
vt 0.759541 0.168546
vt 0.780423 0.163790
vt 0.967030 0.922578
vt 0.970640 0.922234
vt 0.976143 0.954153
vt 0.971857 0.955162
vt 0.259928 0.851555
vt 0.244040 0.800995
vt 0.289811 0.812557
vt 0.299290 0.843729
vt 0.325293 0.826059
vt 0.341180 0.775499
vt 0.380542 0.783325
vt 0.371063 0.814498
vt 0.266575 0.766784
vt 0.294831 0.733450
vt 0.313931 0.748696
vt 0.297149 0.778843
vt 0.271817 0.893605
vt 0.313931 0.874972
vt 0.353070 0.733450
vt 0.395183 0.752082
vt 0.973541 0.756216
vt 0.977543 0.757367
vt 0.970714 0.788124
vt 0.967030 0.787632
vt 0.985665 0.864157
vt 0.990082 0.865158
vt 0.976530 0.896011
vt 0.972822 0.894706
vt 0.976010 0.816940
vt 0.971872 0.818157
vt 0.985913 0.724016
vt 0.989932 0.724726
vt 0.988955 0.851991
vt 0.983999 0.852795
vt 0.988945 0.991720
vt 0.983560 0.992413
vt 0.994106 0.868990
vt 0.981150 0.897534
vt 0.428110 0.627465
vt 0.419068 0.628925
vt 0.420858 0.598706
vt 0.429969 0.599642
vt 0.976448 0.788892
vt 0.981061 0.815503
vt 0.994319 0.728479
vt 0.982456 0.758814
vt 0.975751 0.921750
vt 0.982036 0.952629
vt 0.994319 0.847394
vt 0.994106 0.987659
vt 0.430479 0.691895
vt 0.421354 0.691103
vt 0.422131 0.659943
vt 0.431284 0.659607
vt 0.792530 0.947527
vt 0.783419 0.948463
vt 0.781628 0.918244
vt 0.790670 0.919705
vt 0.422126 0.567563
vt 0.431284 0.567371
vt 0.793845 0.887563
vt 0.784691 0.887226
vt 0.783914 0.856067
vt 0.793039 0.855275
vt 0.793845 0.979799
vt 0.784687 0.979606
vt 0.591710 0.914205
vt 0.618820 0.898826
vt 0.620077 0.904509
vt 0.595943 0.918201
vt 0.746581 0.922890
vt 0.718848 0.923785
vt 0.701947 0.904805
vt 0.702206 0.877059
vt 0.721414 0.857035
vt 0.746767 0.855275
vt 0.765975 0.875299
vt 0.765975 0.903046
vt 0.096645 0.969889
vt 0.084888 0.941993
vt 0.090675 0.942617
vt 0.100878 0.965894
vt 0.097191 0.913355
vt 0.123460 0.896578
vt 0.125013 0.902188
vt 0.101628 0.917123
vt 0.592256 0.970739
vt 0.579953 0.942101
vt 0.585740 0.941477
vt 0.596692 0.966971
vt 0.123756 0.985268
vt 0.125013 0.979585
vt 0.618524 0.987516
vt 0.620077 0.981906
vt 0.153804 0.435677
vt 0.102484 0.438326
vt 0.192924 0.422857
vt 0.392163 0.440239
vt 0.431284 0.453059
vt 0.340844 0.437589
vt 0.313988 0.414289
vt 0.269025 0.403778
vt 0.075628 0.461627
vt 0.030666 0.472138
vt 0.095027 0.379958
vt 0.046240 0.392929
vt 0.005681 0.408592
vt 0.244040 0.467324
vt 0.284600 0.482986
vt 0.333386 0.495957
vt 0.351092 0.533213
vt 0.387089 0.556009
vt 0.148729 0.319907
vt 0.112733 0.342702
s 1
usemtl Cans
f 77/1/1 2/2/2 4/3/3 73/4/4
f 73/4/4 4/3/3 6/5/5 74/6/6
f 74/7/6 6/8/5 8/9/7 78/10/8
f 78/10/8 8/9/7 10/11/9 79/12/10
f 79/12/10 10/11/9 12/13/11 75/14/12
f 75/14/12 12/13/11 14/15/13 80/16/14
f 6/17/15 4/18/16 34/19/17 35/20/15
f 80/21/14 14/22/13 16/23/18 76/24/19
f 76/24/19 16/23/18 2/2/2 77/1/1
f 3/25/20 5/26/21 22/27/21 24/28/22
f 11/29/23 23/30/24 1/31/24 19/32/25
f 23/33/24 15/34/26 18/35/27 1/36/24
f 21/37/28 11/29/23 19/32/25 7/38/29
f 20/39/30 21/37/28 7/38/29 9/40/31
f 15/34/26 17/41/32 13/42/33 18/35/27
f 17/41/32 3/25/20 24/28/22 13/42/33
f 5/43/21 20/39/30 9/40/31 22/44/21
f 7/45/34 19/46/35 30/47/35 28/48/36
f 1/49/37 18/50/38 32/51/38 31/52/37
f 9/53/39 7/45/34 28/48/36 27/54/40
f 22/55/41 9/53/39 27/54/40 26/56/41
f 19/46/35 1/57/37 31/58/37 30/47/35
f 18/50/38 13/59/42 29/60/43 32/51/38
f 24/61/44 22/62/41 26/63/41 25/64/45
f 13/59/42 24/61/44 25/64/45 29/60/43
f 30/65/46 31/66/46 32/67/46 29/68/46 25/69/46 26/70/46 27/71/46 28/72/46
f 33/73/47 41/74/48 42/75/49 34/76/50
f 12/77/51 10/78/52 37/79/53 38/80/54
f 2/81/55 16/82/56 40/83/57 33/84/58
f 4/18/16 2/81/55 33/84/58 34/19/17
f 8/85/59 6/86/15 35/87/15 36/88/60
f 14/89/61 12/77/51 38/80/54 39/90/61
f 10/78/52 8/85/59 36/88/60 37/79/53
f 16/82/56 14/91/61 39/92/61 40/83/57
f 36/93/62 44/94/63 45/95/64 37/96/65
f 39/97/66 47/98/67 48/99/68 40/100/69
f 37/96/65 45/95/64 46/101/70 38/102/71
f 36/93/62 35/103/72 43/104/73 44/94/63
f 40/100/69 48/99/68 41/74/48 33/73/47
f 38/102/71 46/101/70 47/105/67 39/106/66
f 34/76/50 42/75/49 43/107/73 35/108/72
f 48/99/68 47/98/67 55/109/74 56/110/75
f 53/111/76 61/112/77 62/113/78 54/114/79
f 46/101/70 45/95/64 53/115/80 54/116/81
f 44/94/63 43/104/73 51/117/82 52/118/83
f 42/75/49 41/74/48 49/119/84 50/120/85
f 41/74/48 48/99/68 56/110/75 49/119/84
f 47/105/67 46/101/70 54/116/81 55/121/74
f 45/95/64 44/94/63 52/118/83 53/115/80
f 43/107/73 42/75/49 50/120/85 51/122/82
f 51/123/86 59/124/86 60/125/87 52/126/88
f 56/127/89 64/128/90 57/129/91 49/130/92
f 54/114/79 62/113/78 63/131/93 55/132/94
f 52/126/88 60/125/87 61/112/77 53/111/76
f 50/133/95 58/134/95 59/135/86 51/136/86
f 55/137/94 63/138/93 64/128/90 56/127/89
f 64/139/96 63/140/97 71/141/97 72/142/98
f 66/143/99 65/144/99 72/145/99 71/146/99 70/147/99 69/148/99 68/149/99 67/150/99
f 62/151/100 61/152/101 69/153/102 70/154/103
f 60/155/104 59/156/105 67/157/105 68/158/106
f 58/159/107 57/160/108 65/161/109 66/162/107
f 57/160/108 64/139/96 72/142/98 65/161/109
f 63/163/97 62/151/100 70/154/103 71/164/97
f 61/152/101 60/155/104 68/158/106 69/153/102
f 59/165/105 58/159/107 66/162/107 67/166/105
f 49/130/92 57/129/91 58/134/95 50/133/95
f 84/167/110 76/24/19 77/1/1 88/168/111
f 87/169/112 80/21/14 76/24/19 84/167/110
f 83/170/113 75/14/12 80/16/14 87/171/112
f 86/172/114 79/12/10 75/14/12 83/170/113
f 85/173/115 78/10/8 79/12/10 86/172/114
f 82/174/116 74/7/6 78/10/8 85/173/115
f 81/175/117 73/4/4 74/6/6 82/176/116
f 88/168/111 77/1/1 73/4/4 81/175/117
f 17/177/118 88/168/111 81/175/117 3/178/119
f 3/178/119 81/175/117 82/176/116 5/179/120
f 5/180/120 82/174/116 85/173/115 20/181/121
f 20/181/121 85/173/115 86/172/114 21/182/122
f 21/182/122 86/172/114 83/170/113 11/183/123
f 11/183/123 83/170/113 87/171/112 23/184/124
f 23/185/124 87/169/112 84/167/110 15/186/125
f 15/186/125 84/167/110 88/168/111 17/177/118
