# Blender 4.1.1
# www.blender.org
mtllib Cans Splitted 2.mtl
o Can_02_GEO
v -0.046059 0.022684 0.019922
v -0.046059 0.025183 -0.019922
v -0.046059 0.001673 0.019922
v -0.046059 0.001154 -0.019922
v -0.032052 0.000000 0.031514
v -0.032052 0.025183 -0.031514
v -0.032052 -0.000000 -0.031514
v -0.032052 0.022668 0.031514
v -0.044363 0.022684 0.018403
v -0.044363 0.025183 -0.018403
v -0.031424 0.025183 -0.029111
v -0.031424 0.022668 0.029111
v -0.043023 0.021560 0.017246
v -0.043023 0.024059 -0.017246
v -0.044120 0.017737 0.018164
v -0.044120 0.020236 -0.018164
v -0.030897 0.024059 -0.026149
v -0.030897 0.021544 0.026149
v -0.044120 0.003483 0.018164
v -0.044120 0.002963 -0.018164
v -0.031349 0.022935 -0.026516
v -0.031349 0.020419 0.026516
v -0.031349 0.001810 -0.025669
v -0.031349 0.001810 0.025669
v 0.060316 0.025183 0.019922
v 0.060316 0.025183 -0.019922
v 0.060316 0.000000 0.019922
v 0.060316 0.001344 -0.019922
v 0.046309 0.000000 0.026852
v 0.046309 0.025183 -0.029864
v 0.046309 -0.000000 -0.031514
v 0.046309 0.023398 0.031514
v 0.058620 0.025183 0.018403
v 0.058620 0.025183 -0.018403
v 0.045682 0.025183 -0.027461
v 0.045682 0.023398 0.029111
v 0.057280 0.024059 0.017246
v 0.057280 0.024059 -0.017246
v 0.058377 0.022935 0.018164
v 0.058377 0.022935 -0.018164
v 0.045154 0.024059 -0.025631
v 0.045154 0.022273 0.027282
v 0.058377 0.001810 0.018164
v 0.058377 0.003154 -0.018164
v 0.045606 0.022935 -0.027083
v 0.045606 0.021149 0.028734
v 0.045606 0.001810 -0.028734
v 0.045606 0.001810 0.024071
v 0.024820 0.047947 -0.019997
v 0.024852 0.049911 -0.013547
v 0.025732 0.050616 -0.014268
v 0.024852 0.049911 0.013547
v 0.024820 0.047947 0.019997
v 0.025772 0.048545 -0.020109
v 0.025772 0.048545 0.020109
v 0.025732 0.050616 0.014268
v 0.025728 0.032503 -0.017246
v 0.025728 0.029861 0.017246
v 0.027184 0.031130 0.024064
v 0.026664 0.026808 -0.012948
v 0.026664 0.026808 0.012948
v 0.027184 0.031130 -0.024064
v 0.028165 0.030554 0.024341
v 0.028165 0.030554 -0.024341
v -0.010116 0.035442 -0.008031
v -0.010809 0.029638 0.008458
v -0.002095 0.034638 -0.021190
v -0.002406 0.031030 0.021603
v -0.010116 0.033257 0.008031
v -0.002095 0.032155 0.020927
v -0.010809 0.029638 -0.008458
v -0.002406 0.033514 -0.021866
v 0.030835 0.040761 0.017246
v 0.030156 0.041766 0.025132
v 0.033323 0.041372 -0.018164
v 0.031131 0.042331 -0.025453
v 0.030835 0.040761 -0.017246
v 0.033323 0.041372 0.018164
v 0.030156 0.041766 -0.025132
v 0.031131 0.042331 0.025454
vn -0.1552 0.8853 0.4383
vn -0.1604 0.8842 0.4386
vn -0.5111 0.8339 0.2084
vn -0.4664 0.8434 0.2667
vn -0.9088 -0.0000 0.4172
vn -0.9008 -0.0000 -0.4343
vn -0.9000 -0.0000 -0.4359
vn -0.9000 -0.0000 0.4360
vn -0.3268 0.0178 -0.9449
vn -0.3339 0.0174 -0.9424
vn -0.0000 1.0000 -0.0000
vn -0.0461 0.9986 0.0243
vn -0.0508 0.9983 0.0274
vn -0.0041 1.0000 0.0002
vn -0.0047 1.0000 0.0002
vn -0.0000 0.9997 0.0242
vn 0.0005 0.9997 0.0245
vn 0.0003 0.9993 0.0374
vn -0.0000 0.9993 0.0372
vn -0.3143 -0.0555 0.9477
vn -0.3241 -0.0540 0.9445
vn 0.3116 -0.0934 0.9456
vn 0.3017 -0.0938 0.9488
vn -0.5550 0.8147 -0.1681
vn -0.2192 0.8885 -0.4030
vn -0.2138 0.8894 -0.4041
vn -0.5249 0.8231 -0.2167
vn 0.4976 0.8561 -0.1394
vn 0.4958 0.8462 0.1952
vn 0.4369 0.8656 0.2445
vn 0.4500 0.8719 -0.1932
vn -0.0379 0.9990 0.0224
vn -0.0557 0.9979 0.0330
vn 0.1210 0.9084 -0.4001
vn 0.1504 0.9070 -0.3934
vn 0.9851 0.1386 0.1021
vn 0.9851 0.1386 -0.1021
vn 0.7514 0.6571 -0.0603
vn 0.7514 0.6571 0.0603
vn 0.1487 0.9071 0.3937
vn 0.1215 0.9085 0.3999
vn -0.9963 -0.0835 -0.0224
vn -0.9932 -0.1077 -0.0452
vn -0.7793 -0.6216 -0.0802
vn -0.8184 -0.5740 -0.0279
vn -0.9972 -0.0736 0.0138
vn -0.8184 -0.5740 0.0279
vn 0.8526 0.0115 0.5225
vn 0.8651 0.0129 -0.5014
vn 0.8654 0.0129 -0.5008
vn 0.8658 0.0110 0.5003
vn 0.0002 -0.6290 0.7774
vn -0.1825 -0.7264 0.6626
vn -0.1828 -0.7265 0.6624
vn 0.2804 -0.0005 0.9599
vn -0.2940 -0.0268 0.9554
vn -0.3127 -0.0272 0.9494
vn 0.2676 -0.0015 0.9635
vn -0.1619 -0.7276 -0.6666
vn -0.1471 -0.7211 -0.6770
vn 0.0230 -0.6287 -0.7773
vn 0.2565 0.0907 -0.9623
vn 0.2678 0.0881 -0.9594
vn 0.0443 0.9990 -0.0024
vn 0.0432 0.9991 -0.0023
vn 0.1100 0.9939 -0.0059
vn -0.0231 0.9997 0.0063
vn -0.0553 0.9984 0.0151
vn -0.0202 0.9998 0.0055
vn 0.0502 -0.9986 -0.0137
vn 0.0204 -0.9998 -0.0055
vn 0.0180 -0.9998 -0.0049
vn -0.2796 0.1253 -0.9519
vn -0.2914 0.1243 -0.9485
vn -0.1004 -0.9949 0.0050
vn -0.0361 -0.9993 0.0018
vn -0.0371 -0.9993 0.0019
vn 0.8893 -0.0437 0.4553
vn 0.8785 -0.0456 0.4755
vn 0.8941 0.0151 -0.4477
vn 0.8968 0.0149 -0.4422
vn 0.3142 0.0314 -0.9488
vn 0.3301 0.0313 -0.9434
vn -0.5795 -0.7767 0.2469
vn -0.5381 -0.7858 0.3048
vn -0.5142 -0.7916 -0.3302
vn -0.5767 -0.7790 -0.2462
vn -0.8959 -0.0179 0.4439
vn -0.8929 -0.0182 0.4499
vn -0.8756 0.0553 -0.4798
vn -0.8877 0.0527 -0.4573
vn -0.6325 0.7696 -0.0877
vn -0.6325 0.7696 0.0877
vn -0.6347 0.7561 0.1598
vn -0.6347 0.7561 -0.1598
vn -0.6330 0.7354 -0.2418
vn -0.6330 0.7354 0.2418
vn -0.9964 -0.0850 0.0059
vn -0.7793 -0.6216 0.0802
vn 0.9715 0.1582 0.1767
vn 0.7014 0.6913 0.1735
vn 0.9714 0.1583 -0.1768
vn 0.7014 0.6913 -0.1735
vn -0.3503 0.1536 0.9240
vn -0.3696 0.2186 0.9031
vn -0.4063 0.3597 0.8400
vn -0.3696 0.2183 -0.9032
vn -0.3502 0.1536 -0.9240
vn -0.4060 0.3599 -0.8400
vn -0.0128 0.4459 -0.8950
vn -0.0181 0.4595 -0.8880
vn -0.1378 0.2947 -0.9456
vn -0.2312 0.1158 -0.9660
vn -0.0464 0.4490 0.8923
vn -0.0260 0.4374 0.8989
vn -0.2374 0.1258 0.9632
vn -0.1692 0.2798 0.9450
vn 0.1456 -0.9874 -0.0613
vn 0.0298 -0.9741 -0.2242
vn 0.6132 -0.7451 -0.2622
vn 0.4633 -0.8740 -0.1464
vn 0.0616 -0.9918 0.1121
vn 0.1545 -0.9878 -0.0183
vn 0.4724 -0.8747 0.1078
vn 0.6324 -0.7466 0.2067
vn -0.0407 0.9886 -0.1451
vn -0.1413 0.9892 -0.0378
vn -0.4871 0.8732 -0.0143
vn -0.5766 0.8134 -0.0769
vn -0.1434 0.9803 0.1357
vn -0.4562 0.8898 0.0109
vn -0.0469 0.9959 0.0774
vn -0.6566 0.7538 -0.0259
vn 0.3071 -0.9485 -0.0777
vn 0.3042 -0.9523 -0.0241
vn -0.3037 0.9366 0.1747
vn -0.2642 0.9194 0.2913
vn -0.3082 0.9491 -0.0645
vn -0.2654 0.9238 -0.2760
vn 0.3107 -0.9419 -0.1275
vn 0.3039 -0.9527 0.0079
vn 0.0053 0.4191 0.9079
vn -0.0037 0.4219 -0.9066
vt 0.410487 0.914448
vt 0.414770 0.913365
vt 0.429548 0.938849
vt 0.426451 0.941672
vt 0.048704 0.876818
vt 0.053698 0.956434
vt 0.005681 0.956434
vt 0.006720 0.876818
vt 0.806204 0.727842
vt 0.808741 0.691527
vt 0.856757 0.691833
vt 0.856525 0.728163
vt 0.934270 0.753259
vt 0.937568 0.907335
vt 0.932766 0.908589
vt 0.929469 0.752004
vt 0.206427 0.348088
vt 0.211229 0.349341
vt 0.211273 0.503424
vt 0.206472 0.504680
vt 0.683450 0.844001
vt 0.683450 0.923774
vt 0.680056 0.920746
vt 0.680057 0.847031
vt 0.883372 0.234936
vt 0.880155 0.198594
vt 0.925450 0.198751
vt 0.925356 0.235082
vt 0.880698 0.041733
vt 0.928369 0.042187
vt 0.952633 0.724016
vt 0.955668 0.727404
vt 0.962454 0.008534
vt 0.945988 0.035567
vt 0.941717 0.034436
vt 0.959385 0.005681
vt 0.136375 0.968141
vt 0.136576 0.899036
vt 0.139970 0.896578
vt 0.139970 0.970293
vt 0.229644 0.532662
vt 0.232678 0.529273
vt 0.070137 0.953399
vt 0.070137 0.879853
vt 0.073526 0.876818
vt 0.073526 0.956434
vt 0.939731 0.188507
vt 0.946079 0.187559
vt 0.962454 0.212766
vt 0.959436 0.215673
vt 0.666752 0.563136
vt 0.599189 0.564221
vt 0.604401 0.540964
vt 0.660411 0.539165
vt 0.412881 0.761405
vt 0.406545 0.760387
vt 0.775038 0.326938
vt 0.759284 0.325807
vt 0.768231 0.308661
vt 0.781263 0.304637
vt 0.845191 0.324010
vt 0.836233 0.302010
vt 0.332130 0.904967
vt 0.327136 0.977559
vt 0.298654 0.977559
vt 0.297615 0.904967
vt 0.983418 0.483801
vt 0.970372 0.330576
vt 0.974101 0.331187
vt 0.985702 0.482715
vt 0.875861 0.910884
vt 0.874483 0.756992
vt 0.916824 0.756745
vt 0.918106 0.910519
vt 0.967752 0.682959
vt 0.964013 0.683506
vt 0.981362 0.530641
vt 0.983612 0.531797
vt 0.912312 0.940936
vt 0.877800 0.940509
vt 0.928532 0.519279
vt 0.921793 0.489063
vt 0.959009 0.488294
vt 0.956986 0.518012
vt 0.745888 0.327435
vt 0.643326 0.329563
vt 0.657787 0.303635
vt 0.730368 0.302010
vt 0.745888 0.481243
vt 0.734666 0.507023
vt 0.662042 0.508649
vt 0.640394 0.483433
vt 0.465765 0.751954
vt 0.451962 0.723943
vt 0.568591 0.723943
vt 0.545426 0.752060
vt 0.916233 0.335317
vt 0.955977 0.334515
vt 0.465803 0.539165
vt 0.545426 0.539275
vt 0.568591 0.567358
vt 0.442646 0.567358
vt 0.157506 0.875909
vt 0.207828 0.875909
vt 0.205143 0.955525
vt 0.157506 0.955525
vt 0.805207 0.884424
vt 0.855635 0.884780
vt 0.856757 0.919084
vt 0.809145 0.920640
vt 0.878288 0.010600
vt 0.928369 0.005681
vt 0.955668 0.933189
vt 0.952633 0.936577
vt 0.977312 0.199259
vt 0.973817 0.196948
vt 0.973817 0.128024
vt 0.977312 0.125713
vt 0.229631 0.319907
vt 0.232678 0.323285
vt 0.973817 0.212455
vt 0.976956 0.210621
vt 0.976956 0.283213
vt 0.973817 0.281379
vt 0.982733 0.302010
vt 0.985702 0.304109
vt 0.983612 0.710351
vt 0.980607 0.712397
vt 0.244040 0.904967
vt 0.283568 0.904967
vt 0.286253 0.977559
vt 0.244040 0.977559
vt 0.878612 0.724016
vt 0.918106 0.725645
vt 0.917043 0.302010
vt 0.959009 0.306562
vt 0.682309 0.764977
vt 0.682309 0.819118
vt 0.680056 0.820559
vt 0.680056 0.763536
vt 0.685012 0.751779
vt 0.682777 0.751456
vt 0.685012 0.832317
vt 0.682777 0.832639
vt 0.861251 0.320357
vt 0.849774 0.304408
vt 0.681736 0.561198
vt 0.672640 0.543199
vt 0.584578 0.562933
vt 0.592785 0.545248
vt 0.549844 0.765763
vt 0.549793 0.763422
vt 0.568591 0.768858
vt 0.568364 0.771106
vt 0.934077 0.662103
vt 0.934038 0.659761
vt 0.952338 0.653705
vt 0.952650 0.655943
vt 0.948161 0.592857
vt 0.950300 0.594496
vt 0.918203 0.644245
vt 0.916233 0.645505
vt 0.564695 0.832499
vt 0.562606 0.834201
vt 0.532605 0.780699
vt 0.534622 0.781881
vt 0.616509 0.667468
vt 0.587739 0.649383
vt 0.587140 0.587613
vt 0.609881 0.593542
vt 0.678553 0.648827
vt 0.651630 0.667172
vt 0.657394 0.593140
vt 0.680109 0.586451
vt 0.853336 0.404479
vt 0.827102 0.419332
vt 0.847337 0.344557
vt 0.862216 0.342982
vt 0.795391 0.419619
vt 0.775800 0.350282
vt 0.769573 0.404408
vt 0.762233 0.347567
vt 0.673641 0.740094
vt 0.597805 0.740094
vt 0.775520 0.487784
vt 0.757250 0.464481
vt 0.843661 0.487784
vt 0.863121 0.464997
vt 0.690585 0.712723
vt 0.579953 0.713634
vt 0.568591 0.894593
vt 0.566854 0.896432
vt 0.950863 0.530641
vt 0.952650 0.532432
vt 0.426562 0.733450
vt 0.429548 0.736390
s 1
usemtl Cans
f 35/1/1 41/2/2 38/3/3 34/4/4
f 1/5/5 2/6/6 4/7/7 3/8/8
f 7/9/9 4/10/7 2/11/6 6/12/10
f 11/13/11 35/14/11 30/15/11 6/16/11
f 32/17/12 36/18/13 12/19/14 8/20/15
f 2/21/16 1/22/17 9/23/18 10/24/19
f 3/25/8 5/26/20 8/27/21 1/28/5
f 29/29/22 32/30/23 8/27/21 5/26/20
f 6/16/11 2/31/16 10/32/19 11/13/11
f 37/33/24 42/34/25 36/35/26 33/36/27
f 13/37/28 14/38/29 10/39/30 9/40/31
f 1/41/17 8/20/15 12/19/14 9/42/18
f 34/43/11 33/44/32 25/45/33 26/46/11
f 12/47/34 18/48/35 13/49/28 9/50/31
f 78/51/36 75/52/37 51/53/38 56/54/39
f 17/55/40 41/2/2 35/1/1 11/56/41
f 73/57/42 74/58/43 53/59/44 52/60/45
f 77/61/46 73/57/42 52/60/45 50/62/47
f 16/63/48 15/64/49 19/65/50 20/66/51
f 21/67/52 45/68/53 41/69/54 17/70/52
f 23/71/55 47/72/56 45/73/57 21/74/58
f 42/75/59 46/76/60 22/77/61 18/78/61
f 21/74/58 16/79/48 20/80/51 23/71/55
f 15/81/49 22/82/62 24/83/63 19/84/50
f 24/85/64 23/86/65 20/87/66 19/88/66
f 48/89/67 43/90/68 44/91/68 47/92/69
f 27/93/70 29/94/71 31/95/72 28/96/70
f 46/97/73 48/98/74 24/83/63 22/82/62
f 3/99/75 4/100/75 7/101/76 5/102/77
f 25/103/78 27/104/79 28/105/80 26/106/81
f 31/107/82 30/108/83 26/109/81 28/110/80
f 5/102/77 7/101/76 31/95/72 29/94/71
f 27/111/79 25/112/78 32/30/23 29/29/22
f 30/15/11 35/14/11 34/113/11 26/114/11
f 34/115/4 38/116/3 37/117/24 33/118/27
f 25/119/33 33/120/32 36/18/13 32/17/12
f 36/35/26 42/34/25 18/48/35 12/47/34
f 38/121/84 40/122/85 39/123/86 37/124/87
f 41/69/54 45/68/53 40/125/85 38/126/84
f 37/127/87 39/128/86 46/76/60 42/75/59
f 40/129/88 44/130/89 43/131/90 39/132/91
f 45/73/57 47/72/56 44/133/89 40/134/88
f 39/135/91 43/136/90 48/98/74 46/97/73
f 48/89/67 47/92/69 23/86/65 24/85/64
f 6/12/10 30/108/83 31/107/82 7/9/9
f 50/137/92 52/138/93 56/139/94 51/140/95
f 49/141/96 50/137/92 51/140/95 54/142/96
f 52/138/93 53/143/97 55/144/97 56/139/94
f 79/145/98 77/61/46 50/62/47 49/146/99
f 80/147/100 78/51/36 56/54/39 55/148/101
f 75/52/37 76/149/102 54/150/103 51/53/38
f 74/151/104 80/152/105 55/153/106 53/154/106
f 76/155/107 79/156/108 49/157/109 54/158/109
f 72/159/110 67/160/111 62/161/112 64/162/113
f 70/163/114 68/164/115 63/165/116 59/166/117
f 71/167/118 72/168/119 64/169/120 60/170/121
f 68/171/122 66/172/123 61/173/124 63/174/125
f 67/175/126 65/176/127 57/177/128 62/178/129
f 65/176/127 69/179/130 58/180/131 57/177/128
f 69/179/130 70/181/132 59/182/133 58/180/131
f 66/172/123 71/167/118 60/170/121 61/173/124
f 15/183/134 16/184/135 71/167/118 66/172/123
f 13/185/136 18/186/137 70/181/132 69/179/130
f 14/187/138 13/185/136 69/179/130 65/176/127
f 17/188/139 14/187/138 65/176/127 67/175/126
f 22/189/140 15/183/134 66/172/123 68/171/122
f 16/184/135 21/190/141 72/168/119 71/167/118
f 18/191/142 22/192/142 68/164/115 70/163/114
f 21/193/143 17/194/143 67/160/111 72/159/110
f 64/162/113 62/161/112 79/156/108 76/155/107
f 59/166/117 63/165/116 80/152/105 74/151/104
f 60/170/121 64/169/120 76/149/102 75/52/37
f 63/174/125 61/173/124 78/51/36 80/147/100
f 62/178/129 57/177/128 77/61/46 79/145/98
f 57/177/128 58/180/131 73/57/42 77/61/46
f 58/180/131 59/182/133 74/58/43 73/57/42
f 61/173/124 60/170/121 75/52/37 78/51/36
f 11/56/41 10/195/30 14/196/29 17/55/40
