# Blender 4.1.1
# www.blender.org
mtllib Cans Splitted 1.mtl
o Can_01_GEO
v -0.006243 0.124924 -0.013869
v -0.015618 0.058187 -0.041851
v 0.006490 0.125346 -0.014318
v -0.037509 0.058187 -0.015060
v 0.015717 0.133729 -0.009899
v -0.032733 0.058187 0.015897
v 0.015797 0.145537 -0.002846
v -0.015624 0.058187 0.032887
v 0.006026 0.148899 0.008650
v 0.015334 0.058187 0.037791
v -0.006201 0.148464 0.009113
v 0.032396 0.042103 0.015903
v -0.015879 0.144462 -0.001869
v 0.032397 0.042103 -0.015055
v -0.015819 0.138436 -0.012522
v 0.015339 0.058187 -0.036946
v 0.006457 0.129672 -0.024040
v -0.006209 0.129249 -0.023589
v 0.015636 0.138024 -0.019655
v 0.015717 0.149786 -0.012647
v 0.005991 0.153113 -0.001184
v -0.006166 0.152675 -0.000718
v -0.015800 0.148706 -0.011666
v -0.015738 0.142725 -0.022275
v 0.015339 0.002861 -0.036946
v 0.015339 0.113514 -0.036946
v 0.034070 0.002861 -0.015055
v 0.032340 0.113514 -0.015055
v 0.037225 0.002861 0.015903
v 0.037225 0.113514 0.015903
v 0.015334 0.002861 0.037791
v 0.015334 0.113514 0.037791
v -0.015624 0.002861 0.034418
v -0.015624 0.113514 0.034317
v -0.037513 0.002861 0.015897
v -0.037513 0.113514 0.015897
v -0.033214 0.002861 -0.015060
v -0.037509 0.113514 -0.015060
v -0.015618 0.002861 -0.036949
v -0.015618 0.113514 -0.036949
v 0.015851 0.001453 -0.038181
v 0.035304 0.001453 -0.015566
v 0.038460 0.001453 0.016414
v 0.015845 0.001453 0.039026
v -0.016135 0.001453 0.035653
v -0.038746 0.001453 0.016409
v -0.034449 0.001453 -0.015572
v -0.016130 0.001453 -0.038183
v -0.035360 0.058206 -0.014170
v -0.014729 0.058206 -0.039702
v 0.030248 0.042122 -0.014164
v 0.014449 0.058206 -0.034797
v 0.014443 0.058206 0.035642
v 0.014170 0.117703 -0.034124
v 0.029517 0.117703 -0.013886
v 0.034403 0.117703 0.014734
v 0.014165 0.117703 0.034969
v -0.014454 0.117703 0.031495
v -0.034689 0.117703 0.014728
v -0.034688 0.117703 -0.013891
v -0.014449 0.117703 -0.034126
v 0.033400 0.115985 -0.015493
v 0.015779 0.115985 -0.038006
v 0.038285 0.115985 0.016342
v 0.015772 0.115985 0.038851
v -0.016062 0.115985 0.035377
v -0.038571 0.115985 0.016336
v -0.038569 0.115985 -0.015499
v -0.016057 0.115985 -0.038008
v 0.013183 0.113727 -0.031741
v 0.027134 0.113727 -0.012899
v 0.032021 0.113727 0.013746
v 0.013178 0.113727 0.032586
v -0.013467 0.113727 0.029112
v -0.032306 0.113727 0.013742
v -0.032305 0.113727 -0.012904
v -0.013463 0.113727 -0.031743
v 0.029517 0.114951 -0.013886
v 0.014170 0.114951 -0.034124
v 0.034403 0.114951 0.014734
v 0.014165 0.114951 0.034969
v -0.014454 0.114951 0.031495
v -0.034689 0.114951 0.014728
v -0.034688 0.114951 -0.013891
v -0.014449 0.114951 -0.034126
v 0.014449 0.112242 -0.034797
v 0.030191 0.112242 -0.014164
v 0.035077 0.112242 0.015012
v 0.014443 0.112242 0.035642
v -0.014733 0.112242 0.032168
v -0.035363 0.112242 0.015007
v -0.035360 0.112242 -0.014170
v -0.014729 0.112242 -0.034799
v 0.014449 0.006362 -0.034797
v 0.031920 0.006362 -0.014164
v 0.035077 0.006362 0.015012
v 0.014443 0.006362 0.035642
v -0.014733 0.006362 0.032269
v -0.035363 0.006362 0.015007
v -0.031064 0.006362 -0.014170
v -0.014729 0.006362 -0.034799
v 0.015851 -0.000000 -0.038181
v 0.035304 -0.000000 -0.015566
v 0.038460 0.000000 0.016414
v 0.015845 0.000000 0.039026
v -0.016135 0.000000 0.035653
v -0.038746 0.000000 0.016409
v -0.034449 -0.000000 -0.015572
v -0.016130 -0.000000 -0.038183
v 0.030246 0.042122 0.015012
v -0.030584 0.058206 0.015007
v -0.014733 0.058206 0.030738
v 0.014197 0.116044 -0.032639
v -0.014360 0.116068 -0.032621
v 0.034410 0.131961 -0.020247
v 0.034441 0.154494 -0.002704
v 0.014269 0.166290 0.016475
v -0.014288 0.166314 0.016494
v -0.034502 0.154551 -0.002660
v -0.034532 0.137986 -0.023629
v -0.014360 0.114443 -0.030533
v 0.014197 0.114419 -0.030552
v 0.034410 0.130335 -0.018160
v 0.034441 0.152868 -0.000616
v 0.014269 0.164665 0.018563
v -0.014288 0.164689 0.018581
v -0.034502 0.152925 -0.000572
v -0.034532 0.136361 -0.021541
v 0.010794 0.119007 -0.021407
v -0.010748 0.118800 -0.021163
v 0.026153 0.131685 -0.012636
v 0.026211 0.149601 0.000196
v 0.010590 0.157510 0.016200
v -0.010688 0.157295 0.016451
v -0.026283 0.149070 0.000729
v -0.026267 0.137284 -0.015769
v -0.010729 0.121778 -0.030160
v 0.010776 0.121986 -0.030406
v 0.026109 0.134646 -0.021653
v 0.026167 0.152537 -0.008846
v 0.010570 0.160426 0.007140
v -0.010669 0.160210 0.007392
v -0.026239 0.152003 -0.008311
v -0.026223 0.140242 -0.024784
vn 0.0002 0.8042 -0.5944
vn 0.8138 -0.5099 -0.2786
vn 0.8331 -0.4968 -0.2431
vn 0.9235 -0.3026 -0.2357
vn 0.9234 -0.3027 -0.2358
vn 0.9413 0.2663 0.2073
vn 0.9163 0.3161 0.2461
vn 0.4236 0.7148 0.5564
vn 0.3572 0.7370 0.5738
vn -0.4217 0.7155 0.5570
vn -0.3552 0.7376 0.5742
vn -0.9498 0.2469 0.1922
vn -0.9017 0.3411 0.2656
vn 0.9335 0.0510 -0.3549
vn 0.9317 0.0178 -0.3628
vn 0.9436 0.0220 0.3303
vn 0.9461 0.0658 0.3173
vn -0.9337 -0.2826 -0.2200
vn -0.9367 -0.2763 -0.2150
vn -0.8627 -0.4551 -0.2203
vn -0.8574 -0.4597 -0.2314
vn -0.1167 -0.6573 0.7445
vn 0.0382 -0.7017 0.7115
vn -0.0359 -0.6982 0.7150
vn 0.3467 -0.0032 0.9380
vn 0.3526 0.0296 0.9353
vn -0.4241 0.0004 0.9056
vn -0.4200 0.0277 0.9071
vn -0.9015 -0.0100 0.4326
vn -0.9160 0.0235 0.4004
vn -0.9459 -0.0177 -0.3241
vn -0.9413 -0.0291 -0.3364
vn -0.3738 -0.0078 -0.9275
vn -0.4036 -0.0578 -0.9131
vn 0.0358 0.6982 -0.7150
vn 0.4717 0.0026 -0.8817
vn 0.4657 -0.0165 -0.8848
vn 0.4746 0.0243 -0.8799
vn 0.9322 -0.0172 -0.3616
vn 0.9478 -0.0335 0.3172
vn 0.3434 -0.0232 0.9389
vn -0.4202 -0.0268 0.9070
vn -0.9010 -0.0440 0.4316
vn -0.9467 -0.0073 -0.3220
vn -0.3470 -0.4210 -0.8381
vn -0.3630 0.3165 -0.8764
vn 0.4080 0.3096 -0.8589
vn 0.4019 -0.4294 -0.8088
vn -0.3793 0.0410 -0.9244
vn 0.6789 0.6955 0.2355
vn 0.2325 0.6960 0.6794
vn 0.3170 0.3443 0.8837
vn 0.8828 0.3441 0.3198
vn -0.4005 0.3443 -0.8492
vn 0.3891 0.3438 -0.8546
vn 0.4171 -0.0000 -0.9089
vn -0.4304 -0.0000 -0.9027
vn -0.6641 0.7047 0.2498
vn -0.6809 0.6704 -0.2949
vn -0.8640 0.3393 -0.3719
vn -0.8750 0.3466 0.3379
vn -0.2921 0.6744 0.6782
vn -0.3700 0.3400 0.8646
vn -0.3157 0.6959 -0.6450
vn 0.6777 0.6753 -0.2912
vn 0.8648 0.3402 -0.3694
vn 0.3050 0.6939 -0.6523
vn -0.9182 -0.0000 -0.3961
vn -0.9337 -0.0000 0.3579
vn -0.3941 -0.0000 0.9191
vn 0.3336 -0.0000 0.9427
vn 0.9416 -0.0000 0.3368
vn 0.9193 -0.0000 -0.3934
vn 0.8601 -0.4313 0.2722
vn 0.9001 0.3079 0.3082
vn 0.3235 0.3103 0.8939
vn 0.2941 -0.4286 0.8543
vn -0.8185 -0.4266 0.3847
vn -0.8645 0.3118 0.3941
vn -0.8763 0.3166 -0.3630
vn -0.8380 -0.4209 -0.3472
vn 0.8401 -0.4019 -0.3644
vn 0.8663 0.3323 -0.3730
vn -0.3713 0.3276 0.8688
vn -0.3611 -0.4073 0.8389
vn 0.3826 -0.0000 0.9239
vn 0.9239 -0.0000 0.3827
vn 0.1691 0.9288 -0.3297
vn 0.3647 0.9175 -0.1586
vn 0.3533 0.9295 0.1056
vn 0.1171 0.9285 0.3524
vn -0.1554 0.9200 0.3599
vn -0.3362 0.9279 0.1613
vn -0.3497 0.9256 -0.1449
vn -0.1448 0.9256 -0.3497
vn 0.1687 -0.9052 -0.3901
vn 0.1669 -0.9052 -0.3909
vn 0.3673 -0.9151 -0.1662
vn 0.3626 -0.9151 -0.1763
vn 0.9050 -0.0000 -0.4254
vn 0.3953 -0.0000 -0.9186
vn -0.3262 -0.0000 -0.9453
vn -0.9529 -0.0000 -0.3033
vn -0.9175 -0.0000 0.3976
vn -0.4449 -0.0000 0.8956
vn -0.3688 0.8875 0.2764
vn -0.4140 0.8922 0.1803
vn -0.4149 0.8922 0.1784
vn -0.4011 0.9087 -0.1158
vn -0.3939 0.9088 -0.1376
vn -0.1300 0.9074 -0.3997
vn -0.1445 0.9074 -0.3946
vn 0.1766 0.8957 -0.4082
vn 0.1747 0.8957 -0.4090
vn 0.3795 0.9065 -0.1847
vn 0.3845 0.9066 -0.1742
vn 0.3961 0.9034 0.1641
vn 0.3231 0.8895 0.3231
vn 0.9038 -0.4222 -0.0697
vn -0.3829 -0.9171 -0.1109
vn -0.3761 -0.9172 -0.1316
vn -0.1382 -0.9159 -0.3769
vn -0.1244 -0.9159 -0.3817
vn 0.1567 -0.9123 0.3784
vn -0.1702 -0.9163 0.3624
vn -0.1855 -0.9163 0.3550
vn 0.3784 -0.9123 0.1568
vn -0.3956 -0.9021 0.1723
vn -0.3965 -0.9021 0.1704
vn 0.9000 0.0097 -0.4358
vn 0.4263 -0.0010 -0.9046
vn 0.4219 -0.0294 -0.9062
vn 0.9154 -0.0250 -0.4017
vn -0.0000 1.0000 -0.0000
vn -0.3446 0.0030 -0.9388
vn -0.9449 -0.0254 -0.3265
vn -0.9472 -0.0719 -0.3124
vn -0.3513 -0.0321 -0.9357
vn -0.9323 -0.0201 0.3612
vn -0.4775 -0.0023 0.8786
vn -0.4710 0.0175 0.8819
vn -0.9341 -0.0558 0.3527
vn 0.3733 0.0092 0.9277
vn 0.4050 0.0618 0.9122
vn 0.9470 0.0187 0.3206
vn 0.9422 0.0310 0.3336
vn -0.3410 0.0238 -0.9398
vn -0.9490 0.0343 -0.3134
vn -0.9329 0.0175 0.3598
vn -0.4804 -0.0249 0.8767
vn 0.3788 -0.0419 0.9245
vn 0.9479 0.0075 0.3184
vn 0.8993 0.0449 -0.4351
vn 0.4223 0.0274 -0.9061
vn -0.0000 -1.0000 -0.0000
vn -0.9297 -0.3671 -0.0289
vn -0.0002 -0.8624 0.5062
vn 0.1077 -0.8581 0.5021
vn -0.1773 -0.8263 0.5345
vn -0.0403 0.3262 -0.9444
vn 0.1020 0.3825 -0.9183
vn 0.1196 0.3835 -0.9158
vn -0.0448 0.3198 -0.9464
vn 0.2874 0.4674 -0.8360
vn 0.3090 0.4935 -0.8130
vn 0.2244 0.7284 -0.6474
vn 0.1716 0.7786 -0.6036
vn 0.0112 0.8634 -0.5045
vn 0.0090 0.8603 -0.5097
vn 0.0004 0.8527 -0.5223
vn -0.0004 0.8510 -0.5252
vn -0.1285 0.8214 -0.5556
vn -0.0859 0.8373 -0.5400
vn -0.1519 0.5240 -0.8380
vn -0.1741 0.5983 -0.7821
vn 0.1557 -0.8511 0.5014
vn -0.2451 -0.8056 0.5394
vn 0.3300 -0.6737 0.6612
vn 0.3267 -0.6867 0.6494
vn 0.3783 -0.5635 0.7344
vn 0.3731 -0.5633 0.7372
vn 0.1957 -0.4354 0.8787
vn 0.2296 -0.4586 0.8585
vn -0.2081 -0.4117 0.8873
vn -0.2432 -0.4289 0.8700
vn -0.4118 -0.6198 0.6680
vn -0.4028 -0.6520 0.6423
vn -0.4249 -0.6943 0.5808
vn -0.4332 -0.6866 0.5839
vn -0.2677 -0.6535 0.7080
vn -0.2564 -0.6742 0.6926
vn -0.1802 -0.6172 0.7659
vn -0.2132 -0.7912 0.5732
vn -0.2176 -0.7884 0.5754
vn -0.1259 -0.7109 0.6919
vn -0.1218 -0.7096 0.6940
vn 0.1483 -0.7260 0.6715
vn 0.1464 -0.7250 0.6730
vn 0.1514 -0.6793 0.7180
vn 0.1632 -0.6914 0.7038
vn 0.0941 -0.6008 0.7938
vn 0.0878 -0.5956 0.7985
vn 0.0865 -0.6983 0.7106
vn 0.1485 0.6438 -0.7507
vn 0.1215 0.5351 -0.8360
vn 0.1258 0.5315 -0.8377
vn 0.1431 0.6528 -0.7439
vn 0.0920 0.8317 -0.5476
vn 0.0983 0.8311 -0.5474
vn 0.0762 0.7880 -0.6110
vn 0.0730 0.7867 -0.6129
vn -0.0986 0.8023 -0.5887
vn -0.0967 0.8008 -0.5911
vn -0.0364 0.7211 -0.6919
vn -0.0456 0.7318 -0.6800
vn 0.0215 0.5605 -0.8279
vn 0.0245 0.5602 -0.8280
vn -0.0352 0.6084 -0.7929
vn -0.0354 0.6075 -0.7935
vt 0.939793 0.284703
vt 0.939731 0.227035
vt 0.943508 0.227210
vt 0.943508 0.284753
vt 0.897976 0.305259
vt 0.903305 0.305435
vt 0.901412 0.362946
vt 0.896084 0.362770
vt 0.899519 0.420457
vt 0.894190 0.420282
vt 0.881703 0.478708
vt 0.876374 0.478533
vt 0.879812 0.536221
vt 0.874483 0.536045
vt 0.893762 0.595514
vt 0.888434 0.595339
vt 0.443500 0.525181
vt 0.445538 0.446969
vt 0.508638 0.447352
vt 0.505172 0.527803
vt 0.904871 0.648202
vt 0.899543 0.648027
vt 0.890026 0.709117
vt 0.884698 0.708942
vt 0.763151 0.095820
vt 0.745915 0.112568
vt 0.719698 0.112109
vt 0.699615 0.091727
vt 0.698342 0.060379
vt 0.715327 0.044197
vt 0.745088 0.045773
vt 0.763022 0.063025
vt 0.565301 0.414304
vt 0.566588 0.525940
vt 0.628563 0.414311
vt 0.629032 0.525331
vt 0.232270 0.305716
vt 0.119881 0.303490
vt 0.119226 0.254098
vt 0.232678 0.247986
vt 0.118383 0.190901
vt 0.229902 0.184327
vt 0.119062 0.122945
vt 0.229095 0.127104
vt 0.088340 0.702604
vt 0.063372 0.702947
vt 0.043998 0.677341
vt 0.044001 0.653267
vt 0.063761 0.630648
vt 0.087943 0.631543
vt 0.106980 0.655823
vt 0.106861 0.683369
vt 0.119660 0.061156
vt 0.231079 0.064278
vt 0.008423 0.062073
vt 0.008125 0.005947
vt 0.152763 0.005712
vt 0.442646 0.303928
vt 0.504671 0.302010
vt 0.566638 0.302861
vt 0.629032 0.303457
vt 0.007614 0.308545
vt 0.005681 0.250989
vt 0.007101 0.187913
vt 0.157506 0.742945
vt 0.162424 0.742575
vt 0.173390 0.801693
vt 0.167375 0.803706
vt 0.009085 0.124866
vt 0.501409 0.830209
vt 0.501798 0.890048
vt 0.498232 0.890494
vt 0.497439 0.829794
vt 0.817883 0.185642
vt 0.834600 0.241282
vt 0.832172 0.242423
vt 0.814995 0.186076
vt 0.834686 0.065157
vt 0.822182 0.129227
vt 0.818339 0.128792
vt 0.830875 0.063636
vt 0.520353 0.947094
vt 0.517087 0.948916
vt 0.821681 0.184975
vt 0.520353 0.766322
vt 0.516680 0.764377
vt 0.866926 0.010390
vt 0.863758 0.007478
vt 0.837761 0.239915
vt 0.866926 0.284228
vt 0.864428 0.286785
vt 0.815254 0.128505
vt 0.827845 0.062513
vt 0.514431 0.949773
vt 0.495464 0.890958
vt 0.494360 0.829387
vt 0.513402 0.763422
vt 0.860668 0.005681
vt 0.862197 0.288247
vt 0.640411 0.806678
vt 0.645149 0.807603
vt 0.643778 0.862645
vt 0.637765 0.863316
vt 0.172258 0.634267
vt 0.177293 0.636263
vt 0.164105 0.688046
vt 0.158989 0.687456
vt 0.656391 0.751456
vt 0.661304 0.752365
vt 0.659342 0.932368
vt 0.653134 0.932992
vt 0.198422 0.585268
vt 0.203366 0.587145
vt 0.232678 0.652872
vt 0.232678 0.710540
vt 0.227133 0.710540
vt 0.227133 0.652872
vt 0.183109 0.799277
vt 0.209710 0.855551
vt 0.201047 0.862534
vt 0.668694 0.756469
vt 0.652700 0.808102
vt 0.653310 0.862199
vt 0.668694 0.927467
vt 0.209710 0.593458
vt 0.184571 0.638758
vt 0.172360 0.689228
vt 0.171190 0.741916
vt 0.792389 0.836753
vt 0.793845 0.843913
vt 0.739918 0.839953
vt 0.743498 0.833583
vt 0.232678 0.768208
vt 0.232678 0.821161
vt 0.227133 0.821161
vt 0.227133 0.768208
vt 0.859852 0.563994
vt 0.859852 0.621662
vt 0.854307 0.621662
vt 0.854307 0.563994
vt 0.232678 0.544024
vt 0.232678 0.595204
vt 0.227133 0.595204
vt 0.227133 0.544024
vt 0.859852 0.505902
vt 0.854307 0.505902
vt 0.859852 0.680165
vt 0.854307 0.680165
vt 0.473301 0.281843
vt 0.472822 0.234603
vt 0.478421 0.233288
vt 0.478421 0.284467
vt 0.626403 0.756419
vt 0.585382 0.792431
vt 0.579953 0.790527
vt 0.623496 0.751456
vt 0.586221 0.846115
vt 0.580854 0.848188
vt 0.626403 0.882407
vt 0.623658 0.887464
vt 0.482998 0.768432
vt 0.448047 0.802766
vt 0.442646 0.800784
vt 0.480170 0.763422
vt 0.448114 0.856457
vt 0.442718 0.858452
vt 0.482998 0.897270
vt 0.480187 0.902290
vt 0.899118 0.302010
vt 0.904871 0.302065
vt 0.091775 0.843234
vt 0.084888 0.845677
vt 0.085819 0.786892
vt 0.092623 0.789551
vt 0.709415 0.738907
vt 0.702597 0.736281
vt 0.741555 0.692249
vt 0.744993 0.698696
vt 0.701947 0.795068
vt 0.708820 0.792594
vt 0.129708 0.747154
vt 0.133122 0.753613
vt 0.133122 0.878871
vt 0.129498 0.885216
vt 0.194804 0.864547
vt 0.355012 0.056425
vt 0.355599 0.010643
vt 0.461017 0.008352
vt 0.461459 0.062542
vt 0.739204 0.667094
vt 0.701947 0.627347
vt 0.708694 0.568943
vt 0.753768 0.541018
vt 0.813166 0.539165
vt 0.842945 0.584454
vt 0.842945 0.643636
vt 0.796876 0.680165
vt 0.588318 0.112265
vt 0.535237 0.079144
vt 0.531797 0.005681
vt 0.589625 0.007627
vt 0.388545 0.290564
vt 0.355435 0.238705
vt 0.459860 0.235603
vt 0.461459 0.290648
vt 0.354783 0.180454
vt 0.457869 0.176338
vt 0.354162 0.116071
vt 0.458703 0.122664
vt 0.648042 0.112275
vt 0.648508 0.008253
vt 0.475728 0.079600
vt 0.473700 0.008409
vt 0.793845 0.691527
vt 0.792235 0.698654
vt 0.589678 0.221098
vt 0.531296 0.221926
vt 0.246553 0.290345
vt 0.246835 0.237799
vt 0.247464 0.178615
vt 0.245484 0.119169
vt 0.244040 0.059682
vt 0.648508 0.220511
vt 0.472822 0.220056
vt 0.341910 0.567371
vt 0.385672 0.608578
vt 0.398756 0.671996
vt 0.358217 0.722087
vt 0.293418 0.722087
vt 0.244040 0.688303
vt 0.245893 0.623309
vt 0.277823 0.574126
vt 0.245852 0.005681
vt 0.891362 0.712654
vt 0.885630 0.712171
vt 0.803633 0.113699
vt 0.765563 0.152428
vt 0.762114 0.151935
vt 0.802872 0.110385
vt 0.232678 0.005681
vt 0.053277 0.722587
vt 0.097241 0.722760
vt 0.104434 0.735792
vt 0.045467 0.735267
vt 0.128121 0.691187
vt 0.146144 0.694222
vt 0.128068 0.647089
vt 0.146144 0.635635
vt 0.098515 0.609541
vt 0.107059 0.587181
vt 0.054996 0.608020
vt 0.048009 0.585268
vt 0.022754 0.643811
vt 0.005681 0.631310
vt 0.023632 0.683846
vt 0.006149 0.686021
vt 0.752793 0.131891
vt 0.782389 0.102108
vt 0.709150 0.131798
vt 0.702979 0.151779
vt 0.676089 0.099642
vt 0.660223 0.109625
vt 0.676453 0.050645
vt 0.659871 0.046047
vt 0.706225 0.022633
vt 0.701590 0.005681
vt 0.752939 0.023299
vt 0.763666 0.007828
vt 0.783440 0.052370
vt 0.803633 0.046455
s 1
usemtl Cans
f 79/1/1 85/2/1 114/3/1 113/4/1
f 122/5/2 113/6/3 115/7/4 123/8/5
f 123/8/5 115/7/4 116/9/6 124/10/7
f 124/10/7 116/9/6 117/11/8 125/12/9
f 125/12/9 117/11/8 118/13/10 126/14/11
f 126/14/11 118/13/10 119/15/12 127/16/13
f 27/17/14 14/18/15 12/19/16 29/20/17
f 127/16/13 119/15/12 120/21/18 128/22/19
f 128/22/19 120/21/18 114/23/20 121/24/21
f 1/25/22 3/26/23 5/27/24 7/28/24 9/29/24 11/30/24 13/31/24 15/32/24
f 29/20/17 12/19/16 10/33/25 31/34/26
f 31/34/26 10/33/25 8/35/27 33/36/28
f 33/37/28 8/38/27 6/39/29 35/40/30
f 35/40/30 6/39/29 4/41/31 37/42/32
f 37/42/32 4/41/31 2/43/33 39/44/34
f 17/45/35 18/46/35 24/47/35 23/48/35 22/49/35 21/50/35 20/51/35 19/52/35
f 39/44/34 2/43/33 16/53/36 25/54/37
f 16/53/36 26/55/38 28/56/39 14/57/15
f 14/18/15 28/58/39 30/59/40 12/19/16
f 12/19/16 30/59/40 32/60/41 10/33/25
f 10/33/25 32/60/41 34/61/42 8/35/27
f 8/38/27 34/62/42 36/63/43 6/39/29
f 6/39/29 36/63/43 38/64/44 4/41/31
f 40/65/45 69/66/46 63/67/47 26/68/48
f 4/41/31 38/64/44 40/69/49 2/43/33
f 2/43/33 40/69/49 26/55/38 16/53/36
f 29/70/50 31/71/51 44/72/52 43/73/53
f 48/74/54 41/75/55 102/76/56 109/77/57
f 35/78/58 37/79/59 47/80/60 46/81/61
f 31/71/51 33/82/62 45/83/63 44/72/52
f 37/79/59 39/84/64 48/74/54 47/80/60
f 27/85/65 29/70/50 43/73/53 42/86/66
f 33/87/62 35/78/58 46/81/61 45/88/63
f 39/84/64 25/89/67 41/75/55 48/74/54
f 25/89/67 27/90/65 42/91/66 41/75/55
f 46/81/61 47/80/60 108/92/68 107/93/69
f 44/72/52 45/83/63 106/94/70 105/95/71
f 42/86/66 43/73/53 104/96/72 103/97/73
f 47/80/60 48/74/54 109/77/57 108/92/68
f 45/88/63 46/81/61 107/93/69 106/98/70
f 43/73/53 44/72/52 105/95/71 104/96/72
f 41/75/55 42/91/66 103/99/73 102/76/56
f 30/100/74 64/101/75 65/102/76 32/103/77
f 36/104/78 67/105/79 68/106/80 38/107/81
f 28/108/82 62/109/83 64/101/75 30/100/74
f 32/103/77 65/102/76 66/110/84 34/111/85
f 38/107/81 68/106/80 69/66/46 40/65/45
f 34/112/85 66/113/84 67/105/79 36/104/78
f 61/114/86 60/115/87 84/116/87 85/117/86
f 54/118/88 55/119/89 62/120/83 63/67/47
f 55/121/89 56/122/90 64/101/75 62/109/83
f 56/122/90 57/123/91 65/102/76 64/101/75
f 57/123/91 58/124/92 66/110/84 65/102/76
f 58/125/92 59/126/93 67/105/79 66/113/84
f 59/126/93 60/127/94 68/106/80 67/105/79
f 60/127/94 61/128/95 69/66/46 68/106/80
f 61/128/95 54/118/88 63/67/47 69/66/46
f 74/129/96 90/130/97 91/131/98 75/132/99
f 59/133/100 58/134/101 82/135/101 83/136/100
f 57/137/102 56/138/103 80/139/103 81/140/102
f 55/141/104 54/142/105 79/143/105 78/144/104
f 54/142/105 61/114/86 85/117/86 79/143/105
f 60/115/87 59/133/100 83/136/100 84/116/87
f 58/145/101 57/137/102 81/140/102 82/146/101
f 56/138/103 55/147/104 78/148/104 80/139/103
f 70/149/106 71/150/107 78/151/108 79/152/106
f 71/153/107 72/154/109 80/155/110 78/156/108
f 72/154/109 73/157/111 81/158/112 80/155/110
f 73/157/111 74/159/113 82/160/114 81/158/112
f 74/161/113 75/162/115 83/163/116 82/164/114
f 75/162/115 76/165/117 84/166/117 83/163/116
f 76/165/117 77/167/118 85/168/118 84/166/117
f 70/169/119 79/170/119 113/6/3 122/5/2
f 72/171/120 88/172/121 89/173/122 73/174/123
f 77/175/124 93/176/124 86/177/125 70/178/126
f 75/132/99 91/131/98 92/179/127 76/180/127
f 73/174/123 89/173/122 90/181/97 74/182/96
f 71/183/128 87/184/129 88/172/121 72/171/120
f 26/68/48 63/67/47 62/120/83 28/185/82
f 76/180/127 92/179/127 93/176/124 77/175/124
f 111/186/130 112/187/131 98/188/132 99/189/133
f 95/190/134 94/191/134 101/192/134 100/193/134 99/194/134 98/195/134 97/196/134 96/197/134
f 53/198/135 110/199/136 96/200/137 97/201/138
f 51/202/139 52/203/140 94/204/141 95/205/142
f 52/203/140 50/206/143 101/207/144 94/204/141
f 49/208/145 111/186/130 99/189/133 100/209/146
f 112/210/131 53/198/135 97/201/138 98/211/132
f 110/199/136 51/212/139 95/213/142 96/200/137
f 50/206/143 49/208/145 100/209/146 101/207/144
f 70/178/126 86/177/125 87/214/129 71/215/128
f 89/216/147 88/217/148 110/199/136 53/198/135
f 87/218/149 86/219/150 52/203/140 51/202/139
f 86/219/150 93/220/151 50/206/143 52/203/140
f 92/221/152 91/222/153 111/186/130 49/208/145
f 90/223/154 89/216/147 53/198/135 112/210/131
f 88/217/148 87/224/149 51/212/139 110/199/136
f 102/225/155 103/226/155 104/227/155 105/228/155 106/229/155 107/230/155 108/231/155 109/232/155
f 93/220/151 92/221/152 49/208/145 50/206/143
f 91/222/153 90/233/154 112/187/131 111/186/130
f 85/234/156 77/235/156 121/24/21 114/23/20
f 77/236/157 70/237/157 122/238/158 121/239/159
f 25/54/37 16/53/36 14/57/15 27/240/14
f 137/241/160 138/242/161 113/243/162 114/244/163
f 138/242/161 139/245/164 115/246/165 113/243/162
f 139/245/164 140/247/166 116/248/167 115/246/165
f 140/247/166 141/249/168 117/250/169 116/248/167
f 141/249/168 142/251/170 118/252/171 117/250/169
f 142/251/170 143/253/172 119/254/173 118/252/171
f 143/253/172 144/255/174 120/256/175 119/254/173
f 144/255/174 137/241/160 114/244/163 120/256/175
f 129/257/176 130/258/177 121/239/159 122/238/158
f 131/259/178 129/257/176 122/238/158 123/260/179
f 132/261/180 131/259/178 123/260/179 124/262/181
f 133/263/182 132/261/180 124/262/181 125/264/183
f 134/265/184 133/263/182 125/264/183 126/266/185
f 135/267/186 134/265/184 126/266/185 127/268/187
f 136/269/188 135/267/186 127/268/187 128/270/189
f 130/258/177 136/269/188 128/270/189 121/239/159
f 1/25/22 15/32/190 136/269/191 130/258/192
f 15/32/190 13/31/193 135/267/194 136/269/191
f 13/31/193 11/30/195 134/265/196 135/267/194
f 11/30/195 9/29/197 133/263/198 134/265/196
f 9/29/197 7/28/199 132/261/200 133/263/198
f 7/28/199 5/27/201 131/259/202 132/261/200
f 5/27/201 3/26/23 129/257/203 131/259/202
f 3/26/23 1/25/22 130/258/192 129/257/203
f 24/47/204 18/46/205 137/241/206 144/255/207
f 23/48/208 24/47/204 144/255/207 143/253/209
f 22/49/210 23/48/208 143/253/209 142/251/211
f 21/50/212 22/49/210 142/251/211 141/249/213
f 20/51/214 21/50/212 141/249/213 140/247/215
f 19/52/216 20/51/214 140/247/215 139/245/217
f 17/45/218 19/52/216 139/245/217 138/242/219
f 18/46/205 17/45/218 138/242/219 137/241/206
